{"title":"Murder by Claudine Longet (Documentary) XviD AVI 658Mb","uid":5200770,"size":657230239,"categoryP":"video","categoryS":"tv_shows","magnet":"?xt=urn:btih:d248f3c02562b51016cf2fbcba5f205ba5953955&amp;dn=Murder+by+Claudine+Longet+%28Documentary%29+XviD+AVI+658Mb&amp;tr=udp%3A%2F%2Ftracker.openbittorrent.com%3A80&amp;tr=udp%3A%2F%2Fopen.demonii.com%3A1337&amp;tr=udp%3A%2F%2Ftracker.coppersurfer.tk%3A6969&amp;tr=udp%3A%2F%2Fexodus.desync.com%3A6969","seeders":0,"leechers":1,"uploader":null,"files":-1,"time":1260149541,"description":"Murder by Claudine Longet 1976\n==============================\n\nThis documentary shows how Claudine Longet, a minor U.S. celebrity with\nconsiderable wealth available to buy her way out of the situation, murdered\nher boyfriend in Aspen, Colorado, in 1976 and got away with only minor\nprosecution of a most unusual type.\n &lt;a href=&quot;\nhttp://en.wikipedia.org/wiki/Claudine_Longet&quot; rel=&quot;nofollow&quot; target=&quot;_NEW&quot;&gt;\nhttp://en.wikipedia.org/wiki/Claudine_Longet&lt;/a&gt;\n\n--\nLonget was arrested and charged with fatally shooting her boyfriend, Olympic\nskier Vladimir &quot;Spider&quot; Sabich, at his Aspen, Colorado, home on 21 March\n1976. At the sensational trial, Longet said the gun discharged accidentally\nas Sabich was showing her how it worked.\n--\n\nGood quality XviD AVI, with an MD5 file and a surprise extra included.\n\n----------\n\nGeneral\nFormat                           : AVI\nFormat/Info                      : Audio Video Interleave\nFile size                        : 622 MiB [652 Mb]\nDuration                         : 40mn 58s\nOverall bit rate                 : 2 122 Kbps\n\nVideo\nFormat                           : MPEG-4 Visual\nCodec ID                         : XVID\nDuration                         : 40mn 58s\nBit rate                         : 1 998 Kbps\nWidth                            : 720 pixels\nHeight                           : 480 pixels\nFrame rate                       : 29.970 fps\nResolution                       : 24 bits\nScan type                        : Progressive\nStream size                      : 586 MiB (94%)\n\nAudio\nFormat                           : MPEG Audio\nFormat version                   : Version 1\nFormat profile                   : Layer 3\nCodec ID                         : 55\nCodec ID/Hint                    : MP3\nDuration                         : 40mn 58s\nBit rate mode                    : Constant\nBit rate                         : 112 Kbps\nChannel(s)                       : 2 channels\nSampling rate                    : 48.0 KHz\nResolution                       : 16 bits\nStream size                      : 32.8 MiB (5%)\n\n----------\n\nPlease seed as much as you can and remember that others depend upon you,\njust as you depend upon them.\n\nDistribute elsewhere, as much as you please.\n\nOriginal seed will end at 2x.\n\n----\n\nLongetMurder1976.avi\nReadme.nfo\nRollingStones-Claudine.md5\nRollingStones-Claudine.mp3\n\n","torrent":{"xt":"urn:btih:d248f3c02562b51016cf2fbcba5f205ba5953955","amp;dn":"Murder+by+Claudine+Longet+%28Documentary%29+XviD+AVI+658Mb","amp;tr":["udp%3A%2F%2Ftracker.openbittorrent.com%3A80","udp%3A%2F%2Fopen.demonii.com%3A1337","udp%3A%2F%2Ftracker.coppersurfer.tk%3A6969","udp%3A%2F%2Fexodus.desync.com%3A6969"],"infoHash":"d248f3c02562b51016cf2fbcba5f205ba5953955","infoHashBuffer":{"type":"Buffer","data":[210,72,243,192,37,98,181,16,22,207,47,188,186,95,32,91,165,149,57,85]},"announce":[],"urlList":[]}}